<?xml version="1.0" standalone="no"?>
<!DOCTYPE svg PUBLIC "-//W3C//DTD SVG 20010904//EN"
 "http://www.w3.org/TR/2001/REC-SVG-20010904/DTD/svg10.dtd">
<svg version="1.0" xmlns="http://www.w3.org/2000/svg"
 width="4097.000000pt" height="4097.000000pt" viewBox="0 0 4097.000000 4097.000000"
 preserveAspectRatio="xMidYMid meet">
<metadata>
Created by potrace 1.14, written by Peter Selinger 2001-2017
</metadata>
<g transform="translate(0.000000,4097.000000) scale(0.100000,-0.100000)"
fill="#000000" stroke="none">
<path d="M25560 32424 c-47 -36 -92 -70 -100 -77 -8 -7 -33 -26 -55 -42 -90
-67 -319 -246 -459 -359 -81 -67 -163 -132 -181 -146 -18 -14 -59 -47 -91 -75
-33 -27 -140 -119 -239 -204 -263 -225 -440 -384 -740 -664 -191 -180 -805
-795 -805 -808 0 -6 4 -8 8 -5 5 3 35 8 68 11 32 3 82 10 109 15 28 5 70 11
95 14 103 13 130 16 240 31 63 8 176 21 250 30 74 8 158 18 185 21 28 3 61 7
75 9 14 2 63 7 110 10 47 4 96 8 110 10 32 4 128 14 210 20 147 12 187 15 230
20 25 3 86 7 135 10 50 3 108 7 130 9 22 2 92 7 155 11 63 3 147 8 185 11 63
3 176 9 405 19 540 25 1716 25 2110 0 25 -2 117 -6 205 -10 88 -4 176 -9 195
-10 19 -1 89 -5 155 -9 66 -4 145 -9 175 -12 30 -2 84 -7 120 -9 154 -11 267
-21 368 -31 31 -3 77 -7 102 -10 59 -5 143 -13 205 -20 28 -3 66 -7 85 -9 41
-3 139 -14 190 -20 55 -7 210 -25 260 -31 25 -3 56 -7 70 -9 14 -3 48 -7 75
-11 28 -3 61 -7 75 -9 14 -2 45 -7 70 -10 61 -8 319 -45 349 -50 13 -2 45 -7
70 -11 25 -3 57 -8 71 -10 14 -3 40 -7 59 -9 19 -3 84 -14 145 -24 114 -20
168 -29 221 -37 17 -3 50 -9 75 -14 25 -5 62 -12 84 -15 21 -3 41 -7 45 -9 3
-2 27 -7 54 -10 26 -4 116 -20 200 -37 83 -17 163 -33 177 -35 92 -17 633
-135 775 -170 55 -13 109 -26 120 -28 82 -16 788 -201 980 -257 39 -11 99 -29
135 -40 492 -142 1069 -330 1489 -483 24 -9 46 -15 47 -13 3 3 -401 274 -526
352 -19 13 -73 47 -120 77 -75 48 -181 113 -232 143 -9 6 -93 56 -185 111
-201 121 -378 224 -568 329 -138 76 -190 105 -350 190 -44 23 -114 60 -155 83
-95 50 -579 293 -662 331 -35 16 -115 53 -178 83 -63 30 -153 72 -200 93 -47
21 -127 57 -179 81 -51 24 -96 44 -100 44 -4 0 -31 11 -59 25 -29 14 -54 25
-57 25 -2 0 -33 13 -67 28 -589 267 -1771 696 -2513 913 -119 35 -211 62 -302
89 -72 21 -358 100 -383 105 -8 2 -82 21 -165 43 -233 62 -800 197 -914 218
-12 3 -53 12 -90 20 -36 9 -73 17 -82 19 -9 2 -59 13 -110 24 -52 11 -107 22
-124 25 -16 3 -41 8 -55 11 -14 3 -47 10 -75 15 -27 6 -61 13 -75 15 -67 15
-254 49 -425 80 -187 33 -220 38 -300 50 -22 4 -53 8 -70 11 -185 29 -169 31
-265 -42z"/>
<path d="M27667 29104 c-1 -1 -139 -4 -307 -8 -168 -3 -352 -8 -410 -11 -295
-12 -352 -15 -430 -20 -47 -3 -125 -7 -175 -10 -49 -3 -117 -7 -150 -10 -58
-4 -112 -8 -300 -21 -49 -3 -101 -7 -115 -9 -14 -2 -61 -7 -105 -10 -44 -3
-96 -8 -115 -10 -44 -5 -139 -14 -210 -20 -70 -6 -145 -14 -240 -25 -79 -9
-125 -15 -225 -25 -33 -4 -71 -8 -85 -10 -14 -2 -99 -14 -190 -25 -91 -12
-181 -24 -200 -26 -19 -3 -46 -7 -60 -9 -14 -3 -45 -7 -70 -10 -25 -3 -56 -8
-70 -10 -14 -3 -45 -7 -70 -10 -25 -3 -56 -8 -70 -10 -14 -2 -54 -9 -90 -14
-36 -6 -74 -13 -85 -15 -11 -2 -42 -6 -70 -10 -27 -4 -72 -11 -100 -16 -27 -5
-129 -23 -225 -40 -96 -16 -186 -32 -200 -35 -14 -3 -38 -7 -55 -10 -16 -3
-52 -10 -80 -15 -27 -5 -65 -12 -84 -15 -19 -3 -133 -26 -255 -51 -121 -25
-230 -48 -241 -50 -11 -2 -141 -31 -290 -64 -148 -34 -277 -63 -285 -65 -62
-13 -658 -165 -790 -201 -732 -201 -1419 -422 -2115 -680 -49 -18 -121 -45
-160 -59 -38 -14 -83 -32 -100 -39 -16 -8 -68 -28 -115 -46 -47 -17 -98 -38
-115 -45 -16 -7 -84 -34 -150 -60 -222 -89 -693 -290 -843 -361 -40 -19 -75
-34 -77 -34 -4 0 -147 -66 -277 -128 l-76 -37 165 -205 c90 -113 174 -216 186
-230 12 -14 65 -77 117 -140 52 -63 107 -128 121 -145 15 -16 46 -53 70 -81
106 -123 155 -179 169 -194 8 -9 30 -34 49 -55 209 -243 580 -639 957 -1022
l202 -204 -58 -142 c-103 -253 -251 -656 -342 -932 -76 -228 -191 -593 -203
-645 -2 -8 -15 -58 -30 -110 -81 -285 -228 -883 -248 -1005 -3 -16 -12 -61
-21 -100 -9 -38 -31 -153 -50 -255 -33 -176 -40 -214 -51 -277 -2 -16 -13 -82
-24 -148 -11 -66 -23 -140 -26 -165 -6 -47 -9 -64 -20 -140 -12 -80 -14 -94
-19 -137 -7 -54 -11 -85 -35 -278 -16 -124 -22 -191 -36 -359 -4 -49 -8 -97
-10 -105 -1 -9 -6 -59 -10 -111 -3 -52 -8 -114 -10 -137 -2 -23 -6 -97 -10
-165 -4 -68 -8 -150 -10 -183 -3 -57 -16 -474 -19 -633 0 -39 1 -72 4 -72 3 0
14 10 24 23 129 154 300 348 455 516 47 52 94 103 104 115 203 236 957 994
1326 1332 35 32 79 73 96 89 18 17 70 64 115 105 46 41 88 80 94 85 24 24 425
373 470 410 26 22 53 45 59 51 21 19 310 258 397 328 47 38 101 81 120 97 153
124 427 337 650 504 58 43 107 81 110 85 8 9 299 219 495 357 376 264 1020
689 1280 843 22 13 63 38 90 55 66 42 462 277 593 351 198 114 229 131 457
256 412 225 707 378 1135 586 186 90 380 182 385 182 1 0 56 25 120 55 142 67
169 79 310 140 61 26 143 63 183 81 41 19 75 34 78 34 2 0 23 9 47 19 23 11
98 43 167 71 69 28 134 55 145 60 101 45 553 223 775 304 85 32 164 62 175 66
106 48 1248 430 1286 430 8 0 19 4 25 9 5 4 27 13 49 18 22 6 143 41 269 78
206 60 558 158 611 170 11 2 135 34 275 70 267 68 621 151 875 205 83 18 159
34 170 36 27 6 153 31 186 37 14 3 73 14 130 26 57 11 115 22 129 25 35 6 249
44 285 51 75 14 445 76 485 81 25 3 99 14 165 24 66 10 174 26 240 35 66 8
136 18 155 21 19 2 53 7 75 10 22 2 56 6 75 9 19 2 60 7 90 10 30 3 71 8 90
10 50 6 107 13 165 20 28 2 68 7 90 9 22 3 69 8 105 11 36 4 83 8 105 11 22 2
67 6 100 9 33 3 80 8 105 10 25 3 79 7 120 10 41 3 98 8 125 10 28 2 86 7 130
10 44 3 114 8 155 10 157 11 209 14 335 20 72 4 159 8 195 10 435 24 1776 25
1963 1 51 -6 37 10 -36 41 -231 99 -491 207 -547 229 -36 14 -78 32 -95 39
-36 16 -289 115 -400 157 -44 16 -132 49 -195 73 -330 124 -917 323 -1255 425
-33 10 -112 34 -175 53 -94 29 -334 98 -510 147 -19 5 -66 18 -105 29 -73 21
-299 80 -325 86 -8 2 -80 20 -160 40 -120 30 -258 63 -375 90 -340 78 -764
168 -845 180 -24 4 -47 8 -51 10 -3 2 -32 9 -65 14 -32 6 -71 13 -87 16 -15 2
-53 9 -85 15 -31 6 -68 12 -82 15 -14 3 -79 14 -145 26 -163 28 -167 28 -195
34 -22 4 -226 36 -315 50 -39 6 -311 44 -350 50 -16 2 -52 7 -80 10 -27 4 -61
9 -75 11 -30 5 -57 8 -275 35 -231 28 -221 26 -304 34 -41 4 -84 9 -94 11 -11
2 -50 6 -86 9 -36 3 -81 7 -99 9 -17 3 -71 8 -120 11 -48 4 -95 9 -104 10 -9
2 -61 6 -115 10 -54 4 -109 8 -123 10 -14 2 -72 7 -130 10 -58 4 -123 8 -145
10 -22 2 -96 6 -165 10 -69 4 -143 9 -165 10 -22 2 -114 6 -205 10 -91 4 -192
8 -225 10 -149 9 -1230 25 -1238 19z"/>
<path d="M4537 18734 c-1 -1 -74 -5 -162 -9 -88 -3 -180 -8 -205 -10 -25 -2
-79 -6 -120 -10 -41 -3 -91 -7 -110 -10 -19 -2 -53 -7 -75 -9 -164 -21 -224
-30 -325 -47 -63 -11 -128 -23 -145 -26 -148 -25 -522 -125 -706 -189 -324
-112 -673 -279 -904 -432 -320 -212 -545 -415 -774 -698 -13 -16 -64 -90 -113
-164 -227 -343 -371 -752 -406 -1155 -9 -104 -8 -446 1 -558 32 -396 143 -756
325 -1051 50 -82 152 -224 192 -266 229 -247 349 -345 665 -545 56 -36 367
-196 431 -222 16 -7 67 -28 114 -48 239 -103 629 -235 973 -331 111 -31 209
-57 217 -59 8 -2 80 -20 160 -40 80 -20 152 -38 160 -40 8 -2 47 -11 85 -20
39 -9 77 -18 85 -20 8 -2 45 -10 81 -19 37 -8 78 -17 90 -20 13 -3 35 -8 49
-11 14 -3 54 -12 90 -19 36 -8 117 -25 180 -39 63 -14 127 -28 143 -31 15 -2
35 -7 45 -10 9 -3 28 -7 42 -10 20 -3 102 -22 180 -41 8 -2 56 -13 106 -24
141 -32 394 -98 564 -147 394 -116 655 -222 836 -343 205 -136 291 -264 330
-491 11 -67 11 -265 -1 -335 -25 -143 -92 -271 -200 -379 -100 -101 -185 -160
-335 -229 -165 -77 -451 -155 -629 -173 -36 -3 -68 -7 -71 -9 -20 -12 -231
-20 -515 -20 -292 1 -397 5 -525 20 -115 14 -208 26 -230 29 -14 3 -42 7 -63
10 -75 12 -294 58 -382 81 -49 14 -101 27 -115 31 -67 16 -357 113 -405 134
-11 5 -76 32 -145 61 -132 54 -359 163 -525 252 -218 118 -459 266 -777 479
-81 54 -151 98 -156 98 -5 0 -359 -348 -786 -772 l-777 -773 128 -91 c135 -96
367 -252 443 -298 25 -15 79 -48 120 -73 642 -391 1395 -704 2145 -892 66 -16
131 -32 145 -34 14 -3 43 -10 65 -15 22 -6 54 -13 70 -16 17 -3 44 -8 60 -11
97 -18 145 -28 185 -36 25 -5 59 -11 75 -13 77 -12 164 -25 200 -31 23 -3 50
-7 60 -9 11 -2 54 -7 95 -11 41 -4 82 -9 90 -10 17 -3 98 -11 205 -21 39 -3
86 -7 105 -9 219 -20 948 -28 1170 -12 226 16 240 17 383 33 28 3 63 7 77 9
14 2 50 7 80 10 80 9 248 34 300 45 25 5 59 11 75 14 46 7 179 35 295 63 299
72 550 154 850 279 79 33 389 192 436 223 25 17 47 31 50 31 20 0 282 189 409
294 50 41 294 283 339 336 98 114 236 322 317 477 86 166 197 460 209 555 1 4
6 22 11 40 5 18 12 47 14 63 3 17 10 53 15 80 6 28 12 59 14 70 2 11 7 56 12
100 4 44 9 83 10 88 1 4 2 26 3 50 1 40 5 35 85 -128 96 -195 262 -473 341
-572 6 -7 18 -23 27 -35 206 -276 448 -525 722 -744 136 -109 166 -131 328
-239 442 -293 991 -529 1548 -663 125 -31 294 -67 360 -77 19 -3 58 -10 85
-15 28 -5 88 -14 135 -20 47 -5 94 -12 105 -14 34 -6 181 -20 355 -33 107 -8
666 -9 775 -2 l59 4 1 920 c0 506 -1 925 -2 930 -2 6 -27 9 -61 6 -107 -7
-547 -6 -632 2 -413 40 -819 168 -1086 343 -37 24 -69 44 -71 44 -9 0 -191
151 -244 203 -176 172 -333 408 -442 663 -18 44 -90 262 -101 307 l-6 27 3148
0 3149 0 1 -1632 c0 -898 1 -1643 1 -1655 l1 -23 1323 0 1323 0 0 2248 c1
1997 3 2370 19 2447 2 11 7 39 9 63 38 310 150 648 289 871 207 332 522 544
907 610 157 27 195 29 375 26 188 -3 232 -7 310 -25 22 -5 55 -11 72 -15 104
-18 300 -97 417 -168 242 -147 451 -405 571 -707 20 -52 41 -104 46 -115 32
-74 87 -311 110 -475 5 -41 13 -86 17 -100 5 -20 12 -2455 12 -4247 l0 -413
1310 0 1310 0 1 38 c0 20 1 414 1 875 1 460 4 837 7 837 3 0 14 -28 24 -63 58
-201 197 -482 311 -628 12 -15 30 -39 41 -55 97 -137 304 -337 484 -469 176
-128 443 -276 622 -345 30 -11 63 -25 74 -30 98 -47 501 -159 665 -185 19 -3
42 -8 50 -10 8 -3 47 -9 85 -15 39 -5 81 -12 95 -14 54 -9 185 -21 360 -33
189 -12 622 -6 761 12 19 2 63 7 99 10 36 3 76 8 90 10 14 2 43 6 65 10 23 3
52 7 65 10 13 3 42 7 65 11 33 4 118 22 285 59 126 27 399 116 545 177 389
162 776 415 1061 695 31 30 32 31 35 10 2 -12 4 -223 3 -469 l0 -448 1268 0
1268 0 0 1687 c0 927 2 1688 5 1691 3 3 5 -2 5 -11 0 -19 112 -361 134 -411 8
-17 26 -60 41 -96 82 -199 257 -526 382 -712 117 -174 298 -415 349 -463 5 -5
44 -48 85 -94 139 -158 336 -348 518 -501 30 -25 70 -59 90 -76 125 -107 458
-337 666 -460 459 -273 995 -506 1505 -655 145 -43 337 -94 430 -114 152 -34
254 -55 290 -60 24 -4 47 -8 50 -10 4 -2 51 -11 106 -20 54 -9 110 -18 124
-20 38 -6 100 -14 150 -20 25 -3 56 -7 70 -10 14 -2 54 -7 90 -10 36 -4 77 -8
92 -10 223 -27 674 -43 1036 -36 l62 1 0 975 c0 536 -3 975 -7 975 -5 1 -100
3 -213 5 -199 4 -254 7 -370 20 -74 8 -259 34 -290 40 -14 3 -41 8 -60 11 -19
3 -43 7 -52 10 -10 3 -29 7 -43 10 -104 19 -445 121 -530 158 -16 8 -61 26
-100 41 -151 59 -382 183 -551 296 -594 396 -1005 972 -1174 1646 -22 91 -46
211 -56 288 -3 28 -8 59 -10 70 -9 48 -18 254 -17 410 1 150 6 221 29 395 4
36 23 132 38 195 1 6 6 26 10 45 24 105 89 304 127 387 10 24 19 45 19 48 0
15 142 289 153 293 4 2 7 8 7 13 0 16 152 241 212 314 5 5 18 21 29 35 89 108
205 230 315 330 302 273 687 497 1098 639 201 70 481 136 666 157 30 3 64 8
75 10 61 12 229 19 448 19 l247 0 0 977 0 978 -82 1 c-302 5 -549 -3 -868 -26
-78 -6 -211 -20 -300 -31 -19 -2 -53 -6 -75 -9 -53 -6 -254 -35 -285 -41 -14
-2 -41 -7 -60 -10 -19 -3 -102 -19 -185 -35 -82 -17 -161 -33 -175 -35 -14 -3
-97 -23 -185 -45 -751 -188 -1442 -486 -2035 -877 -126 -83 -352 -245 -386
-277 -7 -5 -31 -26 -55 -45 -130 -104 -269 -230 -399 -360 -172 -172 -211
-215 -340 -374 -8 -10 -20 -23 -26 -30 -34 -37 -176 -233 -257 -357 -267 -407
-442 -802 -572 -1289 -18 -69 -34 -118 -35 -110 -1 8 -3 26 -5 40 -5 45 -16
114 -31 195 -9 44 -17 91 -20 105 -3 14 -7 33 -10 42 -3 10 -7 29 -10 43 -2
14 -16 67 -30 118 -14 50 -28 101 -31 112 -11 41 -84 247 -106 297 -43 100
-147 309 -182 364 -19 30 -35 57 -35 61 0 9 -138 201 -204 283 -71 88 -265
284 -351 355 -104 87 -95 80 -181 142 -246 178 -613 358 -950 466 -176 57
-486 135 -604 152 -24 4 -47 8 -50 10 -3 1 -27 6 -54 9 -27 4 -52 9 -55 10 -3
2 -33 7 -66 10 -33 4 -71 8 -85 11 -48 8 -153 20 -260 29 -30 3 -84 8 -120 11
-36 3 -96 8 -135 11 -38 3 -305 7 -592 9 -388 2 -525 0 -530 -8 -13 -19 -10
-1967 2 -1968 5 0 48 -2 95 -4 149 -4 333 -17 450 -30 19 -2 60 -7 90 -10 30
-4 84 -11 120 -16 36 -6 81 -12 100 -15 103 -15 305 -58 370 -78 25 -8 59 -18
75 -22 17 -4 35 -8 40 -10 35 -9 165 -69 227 -105 123 -71 217 -146 307 -243
20 -21 41 -44 46 -50 6 -6 31 -40 57 -76 87 -124 148 -258 188 -415 40 -157
61 -383 34 -378 -10 2 -86 11 -149 17 -16 2 -66 7 -110 11 -44 4 -87 9 -96 10
-8 2 -55 6 -105 10 -49 4 -100 8 -112 10 -13 2 -60 7 -105 10 -45 3 -104 8
-132 10 -108 9 -285 21 -450 30 -60 3 -139 8 -175 10 -569 36 -1308 23 -1720
-30 -19 -3 -55 -7 -80 -10 -25 -3 -56 -7 -70 -10 -14 -3 -43 -7 -65 -10 -22
-2 -51 -7 -65 -10 -13 -2 -40 -7 -60 -10 -20 -3 -47 -7 -60 -10 -14 -3 -41 -8
-60 -11 -19 -4 -82 -17 -140 -31 -58 -14 -113 -26 -124 -29 -179 -36 -550
-172 -761 -278 -149 -74 -155 -78 -290 -165 -480 -308 -813 -762 -949 -1293
-11 -44 -13 48 -13 643 0 611 -5 872 -18 1014 -12 136 -17 181 -31 274 -21
146 -66 375 -89 461 -2 8 -11 42 -20 75 -78 292 -207 605 -360 875 -54 97
-190 303 -244 370 -154 194 -320 371 -461 490 -35 30 -76 65 -90 78 -42 38
-239 177 -345 243 -145 91 -359 202 -527 273 -21 9 -54 23 -73 32 -96 42 -501
167 -611 188 -11 2 -37 9 -59 15 -22 5 -56 13 -75 16 -19 3 -53 10 -75 15 -22
5 -56 11 -75 14 -19 3 -46 8 -60 10 -60 12 -332 46 -405 51 -44 3 -96 8 -115
10 -241 24 -813 19 -1075 -10 -22 -3 -86 -9 -142 -15 -56 -6 -110 -13 -121
-15 -11 -2 -42 -7 -69 -11 -26 -3 -57 -8 -68 -10 -11 -3 -36 -7 -55 -10 -19
-3 -47 -7 -62 -10 -248 -40 -727 -184 -946 -285 -35 -16 -66 -29 -68 -29 -6 0
-207 -100 -259 -130 -548 -308 -961 -702 -1267 -1210 -88 -146 -177 -323 -238
-470 -23 -58 -46 -114 -51 -125 -16 -37 -47 -129 -78 -230 -63 -207 -118 -456
-146 -665 -3 -25 -8 -54 -10 -65 -2 -11 -4 -31 -5 -45 -2 -25 -7 -8 -24 85 -5
25 -33 153 -51 227 -109 466 -333 980 -598 1378 -58 87 -178 251 -197 270 -3
3 -38 44 -78 93 -144 172 -392 404 -597 559 -327 246 -771 470 -1180 596 -162
50 -307 90 -355 99 -14 2 -41 8 -60 13 -19 5 -46 11 -60 13 -14 3 -63 12 -110
21 -84 15 -103 18 -190 31 -81 12 -94 14 -145 19 -27 3 -72 8 -100 11 -171 19
-357 27 -600 28 -263 1 -478 -11 -680 -39 -16 -2 -48 -6 -70 -8 -22 -3 -51 -7
-65 -10 -14 -2 -43 -7 -65 -10 -64 -9 -105 -17 -180 -33 -38 -8 -81 -17 -95
-19 -196 -38 -619 -171 -805 -254 -22 -10 -69 -30 -105 -45 -67 -28 -321 -156
-400 -202 -582 -337 -1051 -770 -1418 -1309 -121 -178 -305 -515 -372 -684
-12 -30 -26 -64 -31 -75 -71 -162 -192 -571 -224 -755 -20 -117 -35 -212 -40
-247 -13 -102 -15 -122 -21 -198 -10 -135 -13 -203 -13 -384 l-1 -173 -46 68
c-327 483 -879 866 -1693 1173 -289 110 -663 227 -986 310 -66 17 -136 36
-155 41 -88 25 -785 184 -890 204 -53 9 -344 78 -540 126 -1039 258 -1416 468
-1501 838 -6 26 -13 56 -16 67 -12 49 -12 313 1 370 64 293 321 516 736 639
99 30 258 63 338 72 30 3 64 8 76 10 43 8 258 18 386 18 164 -1 370 -16 530
-39 36 -5 124 -19 130 -20 10 -2 96 -17 125 -21 17 -3 38 -7 48 -10 11 -3 29
-7 40 -9 41 -6 122 -24 242 -54 197 -49 263 -68 403 -114 l132 -45 0 77 c3
495 1 2004 -3 2007 -2 3 -15 7 -28 9 -13 2 -51 8 -84 14 -56 9 -122 20 -170
26 -11 2 -58 8 -105 15 -47 6 -96 13 -110 15 -64 9 -109 15 -160 20 -30 4 -66
8 -80 10 -14 2 -59 7 -100 10 -41 4 -87 8 -101 10 -15 2 -71 6 -125 10 -55 4
-107 9 -118 11 -38 7 -573 23 -579 18z m9199 -3298 c33 -4 70 -9 84 -11 14 -2
41 -6 60 -9 75 -11 149 -27 235 -52 436 -124 782 -384 1028 -774 140 -220 258
-543 303 -827 3 -21 8 -41 11 -45 2 -5 1 -8 -4 -9 -41 -5 -3928 -2 -3936 3
-11 6 27 175 66 293 10 33 20 65 22 70 1 6 7 24 14 40 6 17 17 44 23 60 123
326 345 642 593 845 189 155 463 295 685 351 101 25 163 38 215 45 22 3 45 7
52 9 6 2 56 7 110 11 54 3 99 7 100 8 6 5 285 -2 339 -8z m17539 -2970 c83 -3
175 -9 205 -11 30 -3 89 -7 130 -10 149 -10 317 -26 488 -46 l92 -11 1 -87 c6
-382 -4 -471 -75 -681 -114 -334 -324 -602 -627 -802 -92 -61 -224 -132 -309
-167 -30 -12 -64 -26 -75 -32 -34 -16 -195 -66 -285 -88 -196 -48 -349 -65
-590 -65 -123 0 -369 12 -380 19 -3 2 -32 6 -65 9 -33 4 -67 9 -75 11 -8 2
-31 7 -50 10 -274 46 -565 185 -736 351 -60 59 -144 163 -144 179 0 5 -6 16
-14 24 -8 9 -26 45 -40 81 -112 275 -68 577 118 813 88 112 212 200 386 274
82 35 234 88 280 98 8 2 42 10 75 18 64 17 207 45 265 53 19 2 42 6 50 9 8 2
44 7 80 10 36 4 67 8 70 10 3 2 47 6 99 10 52 4 102 8 112 10 10 2 87 7 171
10 84 4 154 8 155 9 5 4 552 -2 688 -8z"/>
</g>
</svg>
